<?xml version="1.0" encoding="UTF-8"?>
<svg id="Capa_1" data-name="Capa 1" xmlns="http://www.w3.org/2000/svg" version="1.1" viewBox="0 0 10 10">
  <defs>
    <style>
      .cls-1 {
        fill: #9b9597;
        stroke-width: 0px;
      }
    </style>
  </defs>
  <path class="cls-1" d="M2.5,1c0-.6.4-1,1-1h3c.6,0,1,.4,1,1v1h2c.3,0,.5.2.5.5s-.2.5-.5.5h-.5l-.4,6.1c0,.5-.5.9-1,.9H2.5c-.5,0-1-.4-1-.9l-.4-6.1h-.5c-.3,0-.5-.2-.5-.5s.2-.5.5-.5h2v-1ZM3.5,2h3v-1h-3v1ZM2,3l.4,6h5.1l.4-6H2ZM4,4c.3,0,.5.2.5.5v3c0,.3-.2.5-.5.5s-.5-.2-.5-.5v-3c0-.3.2-.5.5-.5M6,4c.3,0,.5.2.5.5v3c0,.3-.2.5-.5.5s-.5-.2-.5-.5v-3c0-.3.2-.5.5-.5"/>
</svg>