<svg viewBox="0 0 1440 182" fill="none" xmlns="http://www.w3.org/2000/svg">
<path d="M1440 160L1392 144C1344 128 1248 96 1152 74.7C1056 53 960 43 864 74.7C768 107 672 181 576 181.3C480 181 384 107 288 80C192 53 96 75 48 85.3L0 96V4.57764e-05H48C96 4.57764e-05 192 4.57764e-05 288 4.57764e-05C384 4.57764e-05 480 4.57764e-05 576 4.57764e-05C672 4.57764e-05 768 4.57764e-05 864 4.57764e-05C960 4.57764e-05 1056 4.57764e-05 1152 4.57764e-05C1248 4.57764e-05 1344 4.57764e-05 1392 4.57764e-05H1440V160Z" fill="#f9f9f9"/>
</svg>
